<?xml version="1.0" encoding="UTF-8" standalone="no"?>
<!DOCTYPE svg PUBLIC "-//W3C//DTD SVG 1.1//EN" "http://www.w3.org/Graphics/SVG/1.1/DTD/svg11.dtd">
<svg width="100%" height="100%" viewBox="0 0 1083 553" version="1.1" xmlns="http://www.w3.org/2000/svg" xmlns:xlink="http://www.w3.org/1999/xlink" xml:space="preserve" xmlns:serif="http://www.serif.com/" style="fill-rule:evenodd;clip-rule:evenodd;stroke-linejoin:round;stroke-miterlimit:2;">
    <g transform="matrix(1,0,0,1,-8700.782326,-964.350481)">
        <g transform="matrix(0.350936,0,0,0.277183,6010.18862,906.086867)">
            <g id="Riwi" transform="matrix(16.090316,0,0,20.371627,5883.064062,-436.940944)">
                <g transform="matrix(1,0,0,1,75.088411,0.107119)">
                    <path d="M144.439,53.923C140.668,53.405 135.261,53.879 136.149,48.443C138.003,37.101 142.347,34.118 156.544,39.382C173.925,45.827 174.215,65.22 170.314,75.426C165.263,88.643 159.322,89.257 156.617,90.703C149.146,94.698 182.42,124.052 169.452,125.062C151.722,126.443 149.895,117.28 138.06,99.806C132.585,91.721 130.826,94.111 125.488,92.54C120.297,91.011 126.135,79.776 126.833,78.743C131.156,72.342 152.944,81.73 153.468,65.499C153.835,54.116 144.48,53.934 144.439,53.923Z" style="fill:rgb(26,32,76);"/>
                </g>
                <g transform="matrix(1,0,0,1,75.088411,0.107119)">
                    <path d="M109.921,50.64C113.356,39.672 114.569,29.437 127.584,32.081C134.931,33.573 131.251,37.892 112.885,95.622C105.787,117.933 104.538,132.841 89.379,128.943C83.107,127.33 87.431,124.115 109.921,50.64Z" style="fill:rgb(109,94,254);"/>
                </g>
                <g transform="matrix(1,0,0,1,75.088411,0.107119)">
                    <path d="M72.385,113.923C67.242,112.205 46.871,101.316 44.689,100.149C31.583,93.144 32.961,80.257 48.617,72.729C72.22,61.378 76.151,58.184 78.041,63.674C82.541,76.744 59.091,83.407 55.631,84.799C47.634,88.018 58.759,91.862 69.336,96.841C82.825,103.191 81.174,115.06 72.385,113.923Z" style="fill:rgb(109,94,254);"/>
                </g>
                <g transform="matrix(1,0,0,1,71.369409,0.107119)">
                    <path d="M195.177,113.909C192.89,114.446 188.313,116.276 189.048,106.501C190.069,92.937 226.209,91.7 210.136,84.3C198.945,79.147 186.022,75.539 189.375,63.601C190.917,58.109 196.852,61.917 215.211,71.163C218.811,72.976 234.902,78.882 230.368,92.615C229.797,94.343 228.17,99.675 195.177,113.909Z" style="fill:rgb(108,93,254);"/>
                </g>
            </g>
        </g>
    </g>
</svg>
